<svg width="24" height="11" xmlns="http://www.w3.org/2000/svg">
 <title/>
 <desc/>

 <g>
  <title>background</title>
  <rect fill="none" id="canvas_background" height="402" width="582" y="-1" x="-1"/>
 </g>
 <g>
  <title>Layer 1</title>
  <path stroke="null" fill="#ce0404" id="Shape" d="m12,3.068673c-1.562088,0 -3.026546,0.3 -4.491004,0.7l0,3.1c0,0.4 -0.195261,0.7 -0.585783,0.9c-0.976305,0.5 -1.85498,1.1 -2.636024,1.9c-0.195261,0.2 -0.390522,0.3 -0.683414,0.3c-0.292892,0 -0.488153,-0.1 -0.683414,-0.3l-2.440763,-2.5c-0.097631,-0.2 -0.195261,-0.4 -0.195261,-0.7c0,-0.3 0.097631,-0.5 0.292892,-0.7c2.928916,-2.9 7.029398,-4.7 11.422772,-4.7c4.393374,0 8.493856,1.8 11.422772,4.7c0.195261,0.2 0.292892,0.4 0.292892,0.7c0,0.3 -0.097631,0.5 -0.292892,0.7l-2.440763,2.5c-0.195261,0.2 -0.390522,0.3 -0.683414,0.3c-0.292892,0 -0.488153,-0.1 -0.683414,-0.3c-0.781044,-0.7 -1.659719,-1.4 -2.636024,-1.9c-0.292892,-0.2 -0.585783,-0.5 -0.585783,-0.9l0,-3.1c-1.366827,-0.4 -2.831285,-0.7 -4.393374,-0.7l0,0z"/>
 </g>
</svg>