<svg width="18" height="18" xmlns="http://www.w3.org/2000/svg">
 <title/>
 <desc/>

 <g>
  <title>background</title>
  <rect fill="none" id="canvas_background" height="402" width="582" y="-1" x="-1"/>
 </g>
 <g>
  <title>Layer 1</title>
  <path fill="#15683c" id="Shape" d="m3.864222,7.87675c1.326605,2.664953 3.600785,4.854022 6.253995,6.281676l2.084665,-2.093892c0.284273,-0.285531 0.663303,-0.380708 0.947575,-0.190354c1.042333,0.380708 2.179423,0.571061 3.41127,0.571061c0.568545,0 0.947575,0.380708 0.947575,0.951769l0,3.236015c0,0.571061 -0.37903,0.951769 -0.947575,0.951769c-8.907205,0 -16.108776,-7.233445 -16.108776,-16.180074c0,-0.571061 0.37903,-0.951769 0.947575,-0.951769l3.316513,0c0.568545,0 0.947575,0.380708 0.947575,0.951769c0,1.142123 0.189515,2.284246 0.568545,3.426369c0.094758,0.285531 0,0.666238 -0.189515,0.951769l-2.179423,2.093892l0,0z"/>
 </g>
</svg>