<svg width="128" height="128" xmlns="http://www.w3.org/2000/svg">

 <g>
  <title>background</title>
  <rect fill="none" id="canvas_background" height="402" width="582" y="-1" x="-1"/>
 </g>
 <g>
  <title>Layer 1</title>
  <path id="svg_3" fill-rule="evenodd" fill="#66757c" d="m48,40c-17.672,0 -32,14.328 -32,32s14.328,32 32,32s32,-14.328 32,-32s-14.328,-32 -32,-32zm0,56c-13.234,0 -24,-10.766 -24,-24s10.766,-24 24,-24s24,10.766 24,24s-10.766,24 -24,24zm56,-72l-16,0l0,-8c0,-4.418 -3.582,-8 -8,-8l-32,0c-4.418,0 -8,3.582 -8,8l0,8l-16,0c-13.254,0 -24,10.746 -24,24l0,48c0,13.254 10.746,24 24,24l80,0c13.25,0 24,-10.746 24,-24l0,-48c0,-13.254 -10.75,-24 -24,-24zm16,72c0,8.824 -7.18,16 -16,16l-80,0c-8.824,0 -16,-7.176 -16,-16l0,-48c0,-8.824 7.176,-16 16,-16l24,0l0,-16l32,0l0,16l24,0c8.82,0 16,7.176 16,16l0,48z" clip-rule="evenodd"/>
  <path id="svg_4" fill="#03A9F4" d="m48,56c-8.832,0 -16,7.168 -16,16s7.168,16 16,16s16,-7.168 16,-16s-7.168,-16 -16,-16zm0,24c-4.41,0 -8,-3.59 -8,-8s3.59,-8 8,-8s8,3.59 8,8s-3.59,8 -8,8z"/>
  <path id="svg_5" fill-rule="evenodd" fill="#03A9F4" d="m56,24l16,0l0,8l-16,0l0,-8z" clip-rule="evenodd"/>
  <path id="svg_6" fill="#03A9F4" d="m96,40c-8.832,0 -16,7.168 -16,16s7.168,16 16,16s16,-7.168 16,-16s-7.168,-16 -16,-16zm0,24c-4.41,0 -8,-3.59 -8,-8s3.59,-8 8,-8s8,3.59 8,8s-3.59,8 -8,8z"/>
 </g>
</svg>