<svg width="48" height="48" xmlns="http://www.w3.org/2000/svg">

 <g>
  <title>background</title>
  <rect fill="none" id="canvas_background" height="402" width="582" y="-1" x="-1"/>
 </g>
 <g>
  <title>Layer 1</title>
  <path stroke-miterlimit="10" stroke-linejoin="round" stroke-linecap="round" stroke-width="0.7" stroke="#303030" fill="none" id="svg_2" d="m22.07,28.90911c0.3,-0.77 1.05,-1.31 1.93,-1.31c0.58,0 1.1,0.23 1.47,0.61c0.2,0.2 0.36,0.44 0.46,0.7" class="st1"/>
  <path stroke-miterlimit="10" stroke-linejoin="round" stroke-linecap="round" stroke-width="0.7" fill="#303030" id="svg_3" d="m34.3,23.9731l0,9.64804c0,0.54165 -0.43909,0.98074 -0.98075,0.98074l-7.12956,0l-0.10969,-4.92276c0,-0.27 -0.05,-0.53 -0.15,-0.77c-0.1,-0.26 -0.26,-0.5 -0.46,-0.7c-0.37,-0.38 -0.89,-0.61 -1.47,-0.61c-0.88,0 -1.63,0.54 -1.93,1.31c-0.1,0.24 -0.15,0.5 -0.15,0.77l0,5.03245l-7.23925,-0.10969c-0.54165,0 -0.98075,-0.43909 -0.98075,-0.98074l0,-9.64804c0,-0.43618 0.17327,-0.85449 0.4817,-1.16291l9.12481,-9.12481c0.38301,-0.38301 1.00398,-0.38301 1.38699,0l9.12481,9.12481c0.30842,0.30842 0.48169,0.72673 0.48169,1.16291z" class="st1"/>
 </g>
</svg>