<svg width="38" height="32" xmlns="http://www.w3.org/2000/svg">

 <g>
  <title>background</title>
  <rect fill="none" id="canvas_background" height="34" width="40" y="-1" x="-1"/>
 </g>
 <g>
  <title>Layer 1</title>
  <path stroke-miterlimit="10" stroke-linejoin="round" stroke-linecap="round" stroke-width="0.7" stroke="#303030" fill="none" id="svg_2" d="m22.07,18.708038c0.3,-0.77 1.05,-1.31 1.93,-1.31c0.58,0 1.1,0.23 1.47,0.61c0.2,0.2 0.36,0.44 0.46,0.7" class="st1"/>
  <path stroke="null" stroke-miterlimit="10" stroke-linejoin="round" stroke-linecap="round" stroke-width="0.7" fill="#303030" id="svg_3" d="m33.532179,15.935517l0,13.223077c0,0.742356 -0.612104,1.344149 -1.367193,1.344149l-9.938809,0l-0.152911,-6.746866c0,-0.370047 -0.069701,-0.726389 -0.209104,-1.05532c-0.139403,-0.356342 -0.362447,-0.685273 -0.641253,-0.959382c-0.515791,-0.520807 -1.240685,-0.836033 -2.049222,-0.836033c-1.226745,0 -2.272266,0.740095 -2.690475,1.795415c-0.139403,0.328931 -0.209104,0.685273 -0.209104,1.05532l0,6.897201l-10.09172,-0.150335c-0.755075,0 -1.367193,-0.601793 -1.367193,-1.344149l0,-13.223077c0,-0.597805 0.241543,-1.171117 0.671503,-1.593821l12.720244,-12.505967c0.533927,-0.524933 1.399577,-0.524933 1.933503,0l12.720244,12.505967c0.429946,0.422704 0.67149,0.996016 0.67149,1.593821z" class="st1"/>
 </g>
</svg>