<svg width="32" height="32" xmlns="http://www.w3.org/2000/svg">

 <g>
  <title>background</title>
  <rect fill="none" id="canvas_background" height="402" width="582" y="-1" x="-1"/>
 </g>
 <g>
  <title>Layer 1</title>
  <rect id="svg_1" width="32" height="32" fill="none"/>
  <polygon stroke="null" id="svg_2" points="2,8.075201526284218 2,7.710204616189003 30,7.710204616189003 30,8.075201526284218 2,8.075201526284218 "/>
  <polygon stroke="null" id="svg_3" points="2,14.000000461935997 2,13.635007366538048 30,13.635007366538048 30,14.000000461935997 2,14.000000461935997 "/>
  <polygon stroke="null" id="svg_4" points="2,20.05056904256344 2,19.68557308614254 30,19.68557308614254 30,20.05056904256344 2,20.05056904256344 "/>
  <polygon stroke="null" id="svg_5" points="2,10.943270221352577 2,10.57826854288578 30,10.57826854288578 30,10.943270221352577 2,10.943270221352577 "/>
  <polygon stroke="null" id="svg_6" points="2,17.119618877768517 2,16.754622921347618 30,16.754622921347618 30,17.119618877768517 2,17.119618877768517 "/>
  <polygon stroke="null" id="svg_7" points="2,22.855748638510704 2,22.490752682089806 30,22.490752682089806 30,22.855748638510704 2,22.855748638510704 "/>
 </g>
</svg>