<svg width="32" height="32" xmlns="http://www.w3.org/2000/svg">

 <g>
  <title>background</title>
  <rect fill="none" id="canvas_background" height="402" width="582" y="-1" x="-1"/>
 </g>
 <g>
  <title>Layer 1</title>
  <rect id="svg_1" width="32" height="32" fill="none"/>
  <polygon stroke="null" stroke-width="NaN" id="svg_2" points="2,8.515716709196568 2,8.088043369352818 30,8.088043369352818 30,8.515716709196568 2,8.515716709196568 "/>
  <polygon stroke="null" id="svg_3" points="2,13.87421387955419 2,13.446540832519531 30,13.446540832519531 30,13.87421387955419 2,13.87421387955419 "/>
  <polygon stroke="null" id="svg_4" points="2,19.421386562287807 2,18.993713222444057 30,18.993713222444057 30,19.421386562287807 2,19.421386562287807 "/>
  <polygon stroke="null" id="svg_5" points="6,11.19496551901102 6,10.76729217916727 26,10.76729217916727 26,11.19496551901102 6,11.19496551901102 "/>
  <polygon stroke="null" id="svg_6" points="6,16.742141880095005 6,16.314468540251255 26,16.314468540251255 26,16.742141880095005 6,16.742141880095005 "/>
  <polygon stroke="null" id="svg_7" points="6,22.03774275936894 6,21.610069274902344 26,21.610069274902344 26,22.03774275936894 6,22.03774275936894 "/>
 </g>
</svg>