<svg width="40" height="30" xmlns="http://www.w3.org/2000/svg" xmlns:xlink="http://www.w3.org/1999/xlink">
 <defs>
  <linearGradient id="linearGradient5060">
   <stop stop-color="black" offset="0" id="stop5062"/>
   <stop stop-color="black" stop-opacity="0" offset="1" id="stop5064"/>
  </linearGradient>
  <linearGradient id="linearGradient5048">
   <stop stop-color="black" stop-opacity="0" offset="0" id="stop5050"/>
   <stop stop-color="black" offset="0.5" id="stop5056"/>
   <stop stop-color="black" stop-opacity="0" offset="1" id="stop5052"/>
  </linearGradient>
  <linearGradient id="linearGradient29433">
   <stop stop-color="#000000" offset="0" id="stop29435"/>
   <stop stop-color="#000000" stop-opacity="0" offset="1" id="stop29437"/>
  </linearGradient>
  <radialGradient xlink:href="#linearGradient29433" r="11.515739" id="radialGradient29439" gradientUnits="userSpaceOnUse" gradientTransform="matrix(1.000000,0.000000,0.000000,0.346491,-5.177067e-17,18.06653)" fy="27.645426" fx="29.496454" cy="27.645426" cx="29.496454"/>
  <linearGradient y2="Infinity" y1="-Infinity" xlink:href="#linearGradient5048" x2="-Infinity" x1="-Infinity" id="linearGradient6873"/>
  <radialGradient xlink:href="#linearGradient5060" r="117.14286" id="radialGradient6875" gradientUnits="userSpaceOnUse" gradientTransform="matrix(2.774389,0,0,1.969706,-1891.633,-872.8854)" fy="486.64789" fx="605.71429" cy="486.64789" cx="605.71429"/>
  <radialGradient xlink:href="#linearGradient5060" r="117.14286" id="radialGradient6877" gradientUnits="userSpaceOnUse" gradientTransform="matrix(-2.774389,0,0,1.969706,112.7623,-872.8854)" fy="486.64789" fx="605.71429" cy="486.64789" cx="605.71429"/>
 </defs>
 <g>
  <title>background</title>
  <rect fill="none" id="canvas_background" height="32" width="42" y="-1" x="-1"/>
 </g>
 <g>
  <title>Layer 1</title>
  <rect transform="matrix(0.01518738,0,0,0.02086758,42.2582,21.9036) " opacity="0.402062" fill="url(#linearGradient6873)" fill-rule="nonzero" stroke-linecap="round" stroke-miterlimit="4" stroke-dashoffset="0" y="-150.69685" x="-1559.2523" width="1339.6335" id="rect6867" height="478.35718"/>
  <path opacity="0.402062" fill="url(#radialGradient6875)" fill-rule="nonzero" stroke-linecap="round" marker-start="none" marker-mid="none" marker-end="none" stroke-miterlimit="4" stroke-dashoffset="0" id="path6869" d="m38.922766,18.759265c0,0 0,9.981606 0,9.981606c2.169884,0.01879 5.245724,-2.236371 5.245723,-4.991445c0,-2.755074 -2.421428,-4.99016 -5.245723,-4.990161z"/>
  <path opacity="0.402062" fill="url(#radialGradient6877)" fill-rule="nonzero" stroke-linecap="round" marker-start="none" marker-mid="none" marker-end="none" stroke-miterlimit="4" stroke-dashoffset="0" id="path6871" d="m18.577243,18.759265c0,0 0,9.981606 0,9.981606c-2.169885,0.01879 -5.245724,-2.236371 -5.245724,-4.991445c0,-2.755074 2.421427,-4.99016 5.245724,-4.990161z"/>
  <path opacity="0.120253" fill="url(#radialGradient29439)" fill-rule="nonzero" stroke-miterlimit="4" stroke-dashoffset="0" marker-start="none" marker-mid="none" marker-end="none" id="path29431" d="m45.964462,30.435767a15.808888,4.358825 0 1 1 -31.617763,0a15.808888,4.358825 0 1 1 31.617763,0z"/>
  <path stroke="url(#gradbox_stroke)" fill="#086c92" fill-rule="nonzero" stroke-width="0.999999" stroke-miterlimit="4" stroke-dashoffset="0" marker-start="none" marker-mid="none" marker-end="none" id="path29441" d="m34.948952,1.643518c1.4573,0 2.61262,1.14364 2.61262,2.53462l0,19.94996c0,1.39099 -1.15532,2.49375 -2.61262,2.49375l-19.23066,0c-3.46831,1.79098 -1.89596,1.63842 -7.33016,3.61131c2.41944,-2.71391 2.1949,-2.36316 1.92213,-3.61131l-5.25663,0c-1.45729,0 -2.65546,-1.10276 -2.65546,-2.49375l0,-19.94996c0,-1.39098 1.19817,-2.53462 2.65546,-2.53462l29.89532,0z"/>
  <polyline stroke-linecap="round" id="svg_1" points="16.705668903878014,21.422303211876745 16.705668903878014,21.422303211876745 " stroke-width="0.999999" stroke="url(#gradbox_stroke)" fill="none"/>
  <polyline stroke-linecap="round" id="svg_2" points="24.274222973538414,21.20292483304601 24.274222973538414,21.20292483304601 " stroke-width="0.999999" stroke="url(#gradbox_stroke)" fill="none"/>
  <polyline stroke-linecap="round" id="svg_3" points="34.25593921033691,21.20292483304601 34.25593921033691,21.20292483304601 " stroke-width="0.999999" stroke="url(#gradbox_stroke)" fill="none"/>
  <polyline stroke="url(#gradbox_stroke)" stroke-linecap="round" id="svg_4" points="25.700182435938196,26.68738430381442 25.700182435938196,26.68738430381442 " stroke-width="0.999999" fill="none"/>
  <polyline stroke-linecap="round" id="svg_5" points="15.27970944147823,20.215722128307696 15.27970944147823,20.215722128307696 " stroke-width="0.999999" stroke="url(#gradbox_stroke)" fill="none"/>
  <polyline stroke-linecap="round" id="svg_6" points="25.151736488861367,21.093235643630642 25.151736488861367,21.093235643630642 " stroke-width="0.999999" stroke="url(#gradbox_stroke)" fill="none"/>
  <polyline stroke-linecap="round" id="svg_7" points="16.157222956801178,20.435100507138433 16.157222956801178,20.435100507138433 16.157222956801178,20.435100507138433 " stroke-width="0.999999" stroke="url(#gradbox_stroke)" fill="none"/>
  <polyline stroke-linecap="round" id="svg_8" points="25.371114867692093,20.215722128307696 25.371114867692093,20.215722128307696 " stroke-width="0.999999" stroke="url(#gradbox_stroke)" fill="none"/>
  <polyline stroke-linecap="round" id="svg_9" points="25.371114867692093,20.215722128307696 25.371114867692093,20.215722128307696 " stroke-width="0.999999" stroke="url(#gradbox_stroke)" fill="none"/>
  <ellipse stroke="url(#gradbox_stroke)" ry="0.548446" rx="0.603291" id="svg_15" cy="14.292506" cx="16.979892" fill-opacity="null" stroke-opacity="null" stroke-width="0.999999" fill="none"/>
  <ellipse rx="0.054845" id="svg_16" cy="23.067641" cx="17.308959" fill-opacity="null" stroke-opacity="null" stroke-width="0.999999" stroke="url(#gradbox_stroke)" fill="none"/>
  <ellipse stroke="url(#gradbox_stroke)" ry="0.548446" rx="0.548446" id="svg_17" cy="14.292506" cx="20.76417" fill-opacity="null" stroke-opacity="null" stroke-width="0.999999" fill="none"/>
  <ellipse stroke="url(#gradbox_stroke)" ry="0.548444" rx="0.548446" id="svg_18" cy="14.292503" cx="24.274223" fill-opacity="null" stroke-opacity="null" stroke-width="0.999999" fill="none"/>
  <ellipse stroke="url(#gradbox_stroke)" ry="0.054845" id="svg_19" cy="22.354661" cx="16.266912" fill-opacity="null" stroke-opacity="null" stroke-width="0.999999" fill="none"/>
 </g>
</svg>