<svg width="32" height="32" xmlns="http://www.w3.org/2000/svg">

 <g>
  <title>background</title>
  <rect fill="none" id="canvas_background" height="402" width="582" y="-1" x="-1"/>
 </g>
 <g>
  <title>Layer 1</title>
  <rect stroke="null" x="0" y="2.264015" stroke-width="0" id="svg_1" width="32" height="30" fill="none"/>
  <polygon stroke="null" stroke-width="0" id="svg_2" points="2.1257786452770233,8.389784812927246 2.1257786452770233,7.836239814758301 30.125778406858444,7.836239814758301 30.125778406858444,8.389784812927246 2.1257786452770233,8.389784812927246 "/>
  <polygon stroke="null" id="svg_3" points="2.1886706352233887,14.503118306398392 2.1886706352233887,13.94957235455513 30.18866729736328,13.94957235455513 30.18866729736328,14.503118306398392 2.1886706352233887,14.503118306398392 "/>
  <polygon stroke="null" id="svg_4" points="2.1886680126190186,20.4277723133564 2.1886680126190186,19.874229222536087 30.188669204711914,19.874229222536087 30.188669204711914,20.4277723133564 2.1886680126190186,20.4277723133564 "/>
  <polygon stroke="null" id="svg_5" points="2.251557320356369,11.63511848449707 2.251557320356369,11.081572532653809 22.25155660510063,11.081572532653809 22.25155660510063,11.63511848449707 2.251557320356369,11.63511848449707 "/>
  <polygon stroke="null" id="svg_6" points="2.3144466876983643,17.559787541627884 2.3144466876983643,17.006240636110306 22.31444549560547,17.006240636110306 22.31444549560547,17.559787541627884 2.3144466876983643,17.559787541627884 "/>
  <polygon stroke="null" id="svg_7" points="2.2515571117401123,23.610217839479446 2.2515571117401123,22.99478128552437 22.251558303833008,22.99478128552437 22.251558303833008,23.610217839479446 2.2515571117401123,23.610217839479446 "/>
 </g>
</svg>