<svg width="32" height="32" xmlns="http://www.w3.org/2000/svg">

 <g>
  <title>background</title>
  <rect fill="none" id="canvas_background" height="402" width="582" y="-1" x="-1"/>
 </g>
 <g>
  <title>Layer 1</title>
  <rect id="svg_1" width="32" height="32" fill="none"/>
  <polygon stroke="null" id="svg_2" points="2,8.893071010708809 2,8.4025047570467 30,8.4025047570467 30,8.893071010708809 2,8.893071010708809 "/>
  <polygon stroke="null" id="svg_3" points="2,14.817608043551445 2,14.327041789889336 30,14.327041789889336 30,14.817608043551445 2,14.817608043551445 "/>
  <polygon stroke="null" id="svg_4" points="2,20.679248973727226 2,20.251575633883476 30,20.251575633883476 30,20.679248973727226 2,20.679248973727226 "/>
  <polygon stroke="null" id="svg_5" points="10,11.949680164456367 10,11.459113910794258 30,11.459113910794258 30,11.949680164456367 10,11.949680164456367 "/>
  <polygon stroke="null" id="svg_6" points="10,17.74842818081379 10,17.25786192715168 30,17.25786192715168 30,17.74842818081379 10,17.74842818081379 "/>
  <polygon stroke="null" id="svg_7" points="10,23.610069438815117 10,23.1205026358366 30,23.1205026358366 30,23.610069438815117 10,23.610069438815117 "/>
 </g>
</svg>