<svg width="38" height="40" xmlns="http://www.w3.org/2000/svg">

 <g>
  <title>background</title>
  <rect fill="none" id="canvas_background" height="42" width="40" y="-1" x="-1"/>
 </g>
 <g>
  <title>Layer 1</title>
  <path fill="#406366" id="svg_1" d="m18.62607,25.06476c3.31,0 5.98,-2.69 5.98,-6l0.02,-12c0,-3.32 -2.68,-6 -6,-6c-3.31,0 -6,2.68 -6,6l0,12c0,3.31 2.69,6 6,6zm10.6,-6c0,6 -5.07,10.2 -10.6,10.2c-5.52,0 -10.6,-4.2 -10.6,-10.2l-3.4,0c0,6.83 5.44,12.47 12,13.44l0,6.56l4,0l0,-6.56c6.56,-0.97 12,-6.61 12,-13.44l-3.4,0z"/>
 </g>
</svg>